<?xml version="1.0" encoding="utf-8"?>
<!-- Generator: Adobe Illustrator 15.0.0, SVG Export Plug-In  -->
<!DOCTYPE svg PUBLIC "-//W3C//DTD SVG 1.1//EN" "http://www.w3.org/Graphics/SVG/1.1/DTD/svg11.dtd" [
	<!ENTITY ns_flows "http://ns.adobe.com/Flows/1.0/">
]>
<svg version="1.1"
	 xmlns="http://www.w3.org/2000/svg" xmlns:xlink="http://www.w3.org/1999/xlink" xmlns:a="http://ns.adobe.com/AdobeSVGViewerExtensions/3.0/"
	 x="0px" y="0px" width="446px" height="82px" viewBox="-7.305 -13.813 446 82" enable-background="new -7.305 -13.813 446 82"
	 xml:space="preserve">
<defs>
</defs>
<g>
	<path fill-rule="evenodd" clip-rule="evenodd" fill="#332616" d="M231.742,22.245c-1.749-0.009-3.596,0.518-5.395,1.401
		c-2.029-1.692-4.813-2.932-8.242-3.326c-5.634,7.341-1.007,6.402,3.268,6.752c-1.33,1.2-2.526,2.535-3.495,3.901
		c-1.482,2.085-2.811,3.563-4.048,4.602c-1.236-1.039-2.563-2.517-4.046-4.602c-0.969-1.366-2.165-2.701-3.496-3.901
		c4.275-0.35,8.902,0.589,3.269-6.752c-3.432,0.394-6.213,1.634-8.242,3.326c-1.799-0.883-3.646-1.41-5.395-1.401
		c-4.771,0.02-9.716,4.189-10.012,8.983c-0.314,5.096,4.159,10.52,12.083,11.429c1.556-2.758,2.122-4.403,2.044-5.372
		c1.94,2.065,4.723,3.434,7.449,3.447c2.059,0.01,4.253-0.721,6.346-1.904c2.095,1.183,4.288,1.914,6.348,1.904
		c2.727-0.013,5.509-1.382,7.449-3.447c-0.078,0.969,0.488,2.614,2.044,5.372c7.924-0.909,12.397-6.333,12.083-11.429
		C241.457,26.434,236.512,22.265,231.742,22.245 M197.472,31.749c0.096,1.56,0.688,3.052,1.604,4.359
		c-2.549-0.777-9.266,2.271-9.367-4.644c-0.043-2.884,1.488-6.267,6.131-6.371c1.195-0.026,2.358,0.093,3.567,0.559
		C198.019,27.517,197.343,29.66,197.472,31.749 M207.402,37.88c-4.64-0.101-5.997-3.487-6.129-6.368
		c-0.086-1.854,0.577-2.927,1.613-3.56c1.06,0.993,2.188,2.309,3.426,4.051c1.328,1.87,3.079,3.683,5.023,5.169
		C209.994,37.764,208.718,37.911,207.402,37.88 M220.259,37.88c-1.316,0.03-2.592-0.117-3.934-0.708
		c1.944-1.486,3.694-3.299,5.023-5.169c1.237-1.742,2.366-3.058,3.426-4.051c1.036,0.633,1.699,1.706,1.613,3.56
		C226.256,34.394,224.899,37.779,220.259,37.88 M228.585,36.107c0.916-1.307,1.508-2.799,1.604-4.359
		c0.129-2.089-0.547-4.232-1.935-6.097c1.209-0.466,2.372-0.585,3.567-0.559c4.643,0.104,6.173,3.487,6.131,6.371
		C237.851,38.378,231.134,35.331,228.585,36.107"/>
	<path fill-rule="evenodd" clip-rule="evenodd" fill="#332616" d="M62.694,25.729c-3.592,0-6.504,2.912-6.504,6.504
		c0,3.591,2.912,6.503,6.504,6.503c3.593,0,6.504-2.912,6.504-6.503C69.198,28.642,66.288,25.729,62.694,25.729"/>
	<path fill-rule="evenodd" clip-rule="evenodd" fill="#332616" d="M45.986,1.158C31.073-4.48,20.4,11.92,30.269,19.295
		c4.82,3.602,12.612,2.937,15.069-3.373c1.026-2.087,0.462-4.877-1.415-6.532c-2.062-1.815-4.932-1.565-6.407,0.555
		c-1.476,2.123-1,5.312,1.063,7.13c0.533,0.468,1.118,0.799,1.719,0.998c-4.293,2.4-11.367-0.53-11.19-6.3
		c0.353-11.549,20.74-13.244,24.112,1.456c1.934,8.428-4.905,16.543-12.372,17.38c-7.406,0.828-10.495-4.235-16.252-4.711
		C15.109,25.121,7.113,28.553,0,32.233c7.113,3.681,15.109,7.115,24.596,6.336c5.757-0.476,8.846-5.539,16.252-4.709
		c7.467,0.835,14.306,8.952,12.372,17.378c-3.372,14.7-23.759,13.007-24.112,1.458c-0.177-5.773,6.897-8.703,11.19-6.3
		c-0.601,0.199-1.186,0.527-1.719,0.996c-2.063,1.817-2.539,5.006-1.063,7.13c1.475,2.122,4.345,2.369,6.407,0.554
		c1.877-1.652,2.441-4.444,1.415-6.531c-2.457-6.308-10.249-6.975-15.069-3.373c-9.869,7.374,0.804,23.775,15.717,18.139
		c14.195-5.366,13.1-25.119-1.837-31.078C59.086,26.274,60.181,6.522,45.986,1.158"/>
	<rect x="74.352" y="30.339" fill-rule="evenodd" clip-rule="evenodd" fill="#332616" width="108.972" height="3.854"/>
	<path fill-rule="evenodd" clip-rule="evenodd" fill="#332616" d="M403.065,25.897c-5.757,0.476-8.846,5.539-16.251,4.712
		c-7.469-0.838-14.307-8.953-12.373-17.381c3.373-14.7,23.76-13.005,24.111-1.456c0.178,5.771-6.896,8.701-11.189,6.3
		c0.601-0.198,1.186-0.529,1.72-0.998c2.063-1.817,2.539-5.007,1.063-7.13c-1.477-2.12-4.347-2.369-6.407-0.555
		c-1.878,1.655-2.442,4.445-1.416,6.532c2.458,6.31,10.25,6.975,15.069,3.373c9.868-7.374-0.805-23.775-15.718-18.137
		c-14.193,5.364-13.1,25.117,1.837,31.076c-14.937,5.958-16.03,25.711-1.837,31.077c14.913,5.636,25.586-10.765,15.718-18.139
		c-4.819-3.602-12.611-2.935-15.069,3.373c-1.026,2.087-0.462,4.88,1.416,6.532c2.061,1.815,4.931,1.568,6.407-0.555
		c1.476-2.123,1-5.313-1.063-7.13c-0.534-0.468-1.119-0.797-1.72-0.995c4.293-2.403,11.367,0.527,11.189,6.3
		c-0.352,11.549-20.738,13.241-24.111-1.459c-1.934-8.425,4.904-16.543,12.373-17.378c7.405-0.83,10.494,4.233,16.251,4.709
		c9.486,0.779,17.483-2.655,24.597-6.335C420.548,28.553,412.551,25.122,403.065,25.897"/>
	<path fill-rule="evenodd" clip-rule="evenodd" fill="#332616" d="M364.966,25.729c-3.593,0-6.504,2.912-6.504,6.504
		c0,3.591,2.911,6.503,6.504,6.503c3.592,0,6.504-2.912,6.504-6.503C371.47,28.642,368.558,25.729,364.966,25.729"/>
	<rect x="244.337" y="30.339" fill-rule="evenodd" clip-rule="evenodd" fill="#332616" width="108.973" height="3.854"/>
</g>
</svg>
