<?xml version="1.0" encoding="utf-8"?>
<!-- Generator: Adobe Illustrator 15.0.0, SVG Export Plug-In  -->
<!DOCTYPE svg PUBLIC "-//W3C//DTD SVG 1.1//EN" "http://www.w3.org/Graphics/SVG/1.1/DTD/svg11.dtd" [
	<!ENTITY ns_flows "http://ns.adobe.com/Flows/1.0/">
]>
<svg version="1.1"
	 xmlns="http://www.w3.org/2000/svg" xmlns:xlink="http://www.w3.org/1999/xlink" xmlns:a="http://ns.adobe.com/AdobeSVGViewerExtensions/3.0/"
	 x="0px" y="0px" width="273px" height="74px" viewBox="-4.736 -13.406 273 74" enable-background="new -4.736 -13.406 273 74"
	 xml:space="preserve">
<defs>
</defs>
<g>
	<path fill="#332616" d="M133.36,21.108c-1.018-4.569-4.047-8.68-7.831-12.008c-5.052-4.443-11.443-7.491-16.188-8.376
		c-2.96-0.553-5.849-0.648-8.625-0.562c-19.053,0.6-30.674,11.826-32.105,23.221c-0.295,2.35-0.248,4.547,0.083,6.589
		c-3.062,0.761-5.797,1.578-8.034,2.322c-1.996-0.949-4.036-1.823-6.112-2.609c-0.261-0.115-0.472-0.206-0.612-0.262
		c-2.067-0.829-4.176-1.553-6.325-2.141c-7.664-2.09-15.811-2.486-23.637-1.109c-4.866,0.855-9.715,2.203-14.124,4.472
		c-4.146,2.134-9.28,5.486-9.804,10.563c-0.552,5.352,3.988,10.089,8.637,11.954c9.463,3.795,19.912,0.407,29.075-2.601
		c11.639-3.821,23.276-7.649,34.915-11.475c6.445,8.279,18.916,11.396,28.199,8.369c5.521-1.803,9.338-5.825,11.417-10.181
		c3.447,2.563,5.987,6.302,7.018,11.623c0.047,0.243,0.254,0.424,0.502,0.43c0.331,0.006,0.591-0.297,0.532-0.622
		c-1.109-6.158-3.623-10.692-7.048-13.973c0.34-1.068,0.586-2.137,0.72-3.176c1.932-15.011-19.217-21.088-28.095-10.344
		c-1.373,1.661-1.669,4.519-0.297,6.046c-3.455,0.21-6.879,0.663-10.124,1.249c-0.763-2.424-0.965-4.998-0.616-7.531
		c2.331-8.355,10.326-16.048,25.03-17c8.372-0.547,18.64,1.782,25.626,8.585c1.424,1.387,2.713,2.958,3.82,4.73
		c-1.345,0.059-2.618,0.271-3.807,0.605c-6.172,1.744-10.113,6.828-10.493,11.289c-0.519,6.091,5.27,9.092,10.539,7.641
		c3.68-1.014,7.105-4.195,7.958-10.018C133.847,24.778,133.76,22.884,133.36,21.108 M20.288,29.318
		c5.248-1.38,11.18-2.142,16.61-1.671c7.212,0.625,14.322,2.738,20.978,5.72c-1.05,0.364-2.085,0.739-3.111,1.119
		c-8.51-3.47-17.599-5.301-26.812-5.264c-3.412,0.014-6.824,0.286-10.197,0.805C18.613,29.771,19.462,29.537,20.288,29.318
		 M5.591,38.649c0.426-0.888,0.953-1.672,1.563-2.364c4.441-5.051,13.267-5.277,19.377-5.43c8.88-0.22,17.718,1.321,26.001,4.473
		c-7.709,2.962-14.789,6.173-21.683,8.298c-3.433,1.058-6.951,1.83-10.505,2.341c-3.865,0.555-8.07,1.275-11.842-0.164
		C5.49,44.652,4.176,41.598,5.591,38.649 M47.333,45.718c-8.579,2.82-17.413,6.547-26.479,7.358
		c-4.4,0.396-9.038-0.032-13.022-2.063c-2.01-1.025-3.849-2.648-4.994-4.593c0.208,0.181,0.422,0.356,0.643,0.519
		c4.544,3.329,10.477,3.911,15.924,3.411c12.105-1.11,23.997-6.197,35.466-9.925c5.005-1.627,9.9-3.026,14.928-4.457
		c0.243-0.069,0.497-0.14,0.756-0.212c0.341,0.679,0.719,1.332,1.129,1.959C63.567,40.383,55.45,43.05,47.333,45.718
		 M109.707,31.938c-0.601-0.381-1.22-0.733-1.854-1.063c1.123-4.039,0.043-8.295-2.861-11.052
		C108.78,22.589,110.439,27.389,109.707,31.938 M96.144,18.467c3.551-0.22,7.462,1.152,9.399,4.309
		c1.535,2.502,1.679,5.074,0.937,7.443c-4.828-2.166-10.438-3.029-16.153-3.084c1.008-1.394,0.832-3.641-1.144-4.407
		c-1.016-0.394-1.897-0.267-2.559,0.16C88.164,20.253,94.041,18.597,96.144,18.467 M104.679,33.695
		c-1.984,2.696-5.029,4.812-8.066,5.743c-6.358,1.951-13.244,0.044-17.687-4.894c-0.184-0.204-0.35-0.419-0.522-0.63
		C86.324,32.377,96.43,31.397,104.679,33.695 M76.669,34.267c1.062,1.457,2.353,2.783,3.877,3.921
		c7.48,5.588,18.936,4.638,24.932-2.743c0.323-0.397,0.614-0.808,0.88-1.225c0.819,0.284,1.618,0.6,2.387,0.96
		c-2.383,5.354-8.581,9.435-19.099,7.767c-6.725-1.319-11.064-4.539-13.394-8.591C76.389,34.325,76.53,34.297,76.669,34.267
		 M123.509,22.979c1.66-2.168,4.038-3.563,6.721-3.993c0.198,0.473,0.387,0.961,0.558,1.464c0.513,1.504,0.777,3.091,0.691,4.677
		c-0.054,0.974-0.224,1.937-0.565,2.869c-1.076,2.938-4.772,5.919-7.835,3.551C120.313,29.408,121.72,25.315,123.509,22.979
		 M125.592,35.355c-0.716,0.181-1.495,0.237-2.342,0.159c-2.923-0.542-4.074-3.229-3.646-6.336c0.092-0.629,0.219-1.238,0.372-1.83
		c-0.252,2.098,0.244,4.193,2.098,5.508c2.227,1.579,5.055,1.319,7.194-0.104C128.319,34.062,127.098,34.979,125.592,35.355"/>
	<path fill="#332616" d="M127.326,26.827c0.881,5.817,4.321,8.982,8.006,9.979c5.275,1.427,11.051-1.603,10.502-7.69
		c-0.401-4.459-4.367-9.524-10.547-11.238c-1.191-0.329-2.464-0.536-3.81-0.589c1.098-1.776,2.38-3.354,3.797-4.748
		c6.954-6.836,17.211-9.214,25.585-8.708c14.708,0.882,22.74,8.536,25.111,16.881c0.361,2.531,0.171,5.106-0.579,7.533
		c-3.248-0.57-6.675-1.007-10.131-1.201c1.365-1.532,1.055-4.389-0.326-6.044c-8.929-10.701-30.048-4.522-28.044,10.479
		c0.138,1.038,0.39,2.105,0.735,3.173c-3.409,3.297-5.902,7.843-6.981,14.006c-0.057,0.327,0.203,0.627,0.535,0.619
		c0.247-0.007,0.454-0.188,0.5-0.432c1.005-5.326,3.527-9.078,6.962-11.656c2.099,4.346,5.936,8.35,11.466,10.125
		c9.297,2.982,21.753-0.193,28.158-8.505c11.657,3.771,23.312,7.543,34.97,11.309c9.177,2.964,19.642,6.301,29.086,2.46
		c4.64-1.887,9.158-6.646,8.58-11.994c-0.548-5.075-5.698-8.402-9.854-10.516c-4.42-2.248-9.275-3.572-14.146-4.405
		c-7.832-1.34-15.979-0.903-23.631,1.224c-2.146,0.598-4.252,1.331-6.315,2.17c-0.139,0.057-0.35,0.148-0.611,0.266
		c-2.071,0.796-4.107,1.68-6.099,2.638c-2.24-0.733-4.979-1.537-8.044-2.283c0.32-2.044,0.357-4.241,0.051-6.59
		c-1.486-11.386-13.161-22.558-32.216-23.066c-2.776-0.073-5.665,0.036-8.623,0.604c-4.74,0.907-11.117,3.987-16.147,8.453
		c-3.768,3.347-6.777,7.471-7.773,12.045C127.101,22.9,127.022,24.795,127.326,26.827 M243.138,29.487
		c-3.376-0.502-6.789-0.759-10.2-0.755c-9.214,0.006-18.294,1.881-26.788,5.392c-1.028-0.375-2.064-0.745-3.116-1.104
		c6.642-3.014,13.742-5.161,20.951-5.82c5.427-0.497,11.363,0.236,16.617,1.592C241.43,29.004,242.28,29.234,243.138,29.487
		 M252.467,45.218c-3.764,1.458-7.973,0.757-11.84,0.22c-3.558-0.493-7.079-1.248-10.517-2.289
		c-6.904-2.093-13.999-5.27-21.722-8.194c8.267-3.19,17.098-4.774,25.979-4.596c6.11,0.121,14.938,0.307,19.403,5.335
		c0.613,0.69,1.144,1.473,1.574,2.357C256.773,40.992,255.473,44.053,252.467,45.218 M189.248,37.433
		c0.407-0.629,0.781-1.283,1.119-1.964c0.259,0.07,0.514,0.141,0.757,0.208c5.035,1.406,9.936,2.783,14.949,4.385
		c11.487,3.675,23.403,8.704,35.513,9.756c5.45,0.474,11.38-0.137,15.908-3.487c0.22-0.164,0.433-0.34,0.64-0.522
		c-1.135,1.95-2.966,3.582-4.972,4.617c-3.974,2.05-8.61,2.5-13.012,2.127c-9.069-0.769-17.921-4.454-26.514-7.232
		C205.507,42.689,197.376,40.061,189.248,37.433 M155.854,19.703c-2.891,2.769-3.95,7.031-2.808,11.063
		c-0.633,0.332-1.25,0.689-1.849,1.072C150.444,27.293,152.08,22.485,155.854,19.703 M174.236,22.678
		c-0.663-0.424-1.545-0.547-2.56-0.147c-1.972,0.775-2.137,3.024-1.122,4.412c-5.715,0.083-11.321,0.973-16.138,3.16
		c-0.754-2.364-0.622-4.937,0.901-7.446c1.922-3.166,5.826-4.557,9.378-4.354C166.799,18.422,172.684,20.05,174.236,22.678
		 M182.51,33.665c-0.171,0.212-0.337,0.427-0.519,0.633c-4.42,4.959-11.297,6.899-17.664,4.979
		c-3.041-0.917-6.096-3.018-8.094-5.704C164.471,31.235,174.582,32.165,182.51,33.665 M184.664,34.096
		c-2.311,4.063-6.635,7.304-13.354,8.655c-10.509,1.719-16.727-2.333-19.135-7.675c0.767-0.364,1.565-0.685,2.382-0.973
		c0.268,0.416,0.561,0.825,0.886,1.222c6.031,7.352,17.492,8.247,24.945,2.624c1.518-1.146,2.803-2.479,3.857-3.94
		C184.385,34.038,184.526,34.067,184.664,34.096 M137.824,31.512c-3.052,2.382-6.762-0.58-7.852-3.514
		c-0.346-0.931-0.521-1.894-0.579-2.867c-0.094-1.584,0.163-3.173,0.668-4.679c0.169-0.503,0.356-0.993,0.551-1.466
		c2.685,0.415,5.07,1.8,6.741,3.96C139.152,25.274,140.579,29.36,137.824,31.512 M131.64,32.746c2.146,1.414,4.975,1.66,7.195,0.07
		c1.848-1.324,2.333-3.422,2.071-5.518c0.156,0.591,0.286,1.2,0.381,1.828c0.443,3.103-0.695,5.797-3.615,6.353
		c-0.847,0.082-1.626,0.029-2.343-0.147C133.821,34.963,132.596,34.052,131.64,32.746"/>
</g>
</svg>
