<?xml version="1.0" encoding="utf-8"?>
<!-- Generator: Adobe Illustrator 15.0.0, SVG Export Plug-In  -->
<!DOCTYPE svg PUBLIC "-//W3C//DTD SVG 1.1//EN" "http://www.w3.org/Graphics/SVG/1.1/DTD/svg11.dtd" [
	<!ENTITY ns_flows "http://ns.adobe.com/Flows/1.0/">
]>
<svg version="1.1"
	 xmlns="http://www.w3.org/2000/svg" xmlns:xlink="http://www.w3.org/1999/xlink" xmlns:a="http://ns.adobe.com/AdobeSVGViewerExtensions/3.0/"
	 x="0px" y="0px" width="196px" height="81px" viewBox="0 0 196 81" enable-background="new 0 0 196 81" xml:space="preserve">
<defs>
</defs>
<path fill="#555555" d="M193.877,47.646c-0.918,4.216-2.881,8.177-5.291,11.801c-2.455,3.605-5.486,6.851-8.953,9.556
	c-3.445,2.742-7.342,4.892-11.402,6.579c-4.078,1.658-8.35,2.782-12.666,3.514c-8.662,1.378-17.463,1.125-26.016-0.168
	c-8.564-1.28-16.926-3.551-24.965-6.583c8.393,1.834,16.795,3.436,25.252,4.26c4.229,0.382,8.459,0.653,12.682,0.573
	c4.219-0.042,8.428-0.34,12.564-1.042c8.27-1.307,16.313-4.188,23.156-9.003c3.408-2.411,6.523-5.274,9.172-8.559
	C190.064,55.302,192.33,51.651,193.877,47.646z"/>
<path fill="#CB5E6A" d="M45.689,47.646L75.154,9.228l36.83,44.918c0,0,50.984,17.188,69.76-8.016l-18.78-27.406l-19.214-3.141V1.048
	h-14v28h-5V12.983l-51.228-9.1L45.689,47.646z"/>
<polygon fill="#CB5E6A" points="53.055,28.625 66.561,11.048 35.291,11.048 8.959,52.503 36.445,14.615 "/>
<g>
	<g>
		<rect x="66" y="26" fill="#999999" width="8" height="9"/>
		<rect x="75" y="26" fill="#999999" width="8" height="9"/>
		<rect x="66" y="36" fill="#999999" width="8" height="9"/>
		<rect x="75" y="36" fill="#999999" width="8" height="9"/>
	</g>
</g>
<rect x="30.75" y="26.048" fill="#999999" width="4" height="6"/>
<rect x="35.75" y="26.048" fill="#999999" width="4" height="6"/>
<rect x="30.75" y="33.048" fill="#999999" width="4" height="6"/>
<rect x="35.75" y="33.048" fill="#999999" width="4" height="6"/>
<path fill="#555555" d="M1.852,63.123c3.555-2.217,7.412-3.938,11.328-5.472c3.924-1.533,7.971-2.751,12.061-3.823
	c8.209-2.021,16.656-3.236,25.158-3.528c8.5-0.313,17.045,0.239,25.465,1.553c4.213,0.648,8.387,1.527,12.525,2.538
	c2.063,0.51,4.135,1.091,6.148,1.682c2.01,0.589,3.963,1.154,5.939,1.697c3.949,1.121,7.914,2.168,11.891,3.114
	c3.971,0.984,7.961,1.831,11.955,2.583c7.986,1.488,16.039,2.484,24.018,2.358c7.945-0.16,15.902-1.495,22.926-5.226
	c1.76-0.91,3.461-1.957,5.084-3.134c1.621-1.181,3.141-2.509,4.625-3.901c2.934-2.819,5.514-6.071,7.877-9.517
	c-1.58,3.869-3.633,7.587-6.219,10.988c-2.576,3.409-5.752,6.421-9.334,8.924c-3.613,2.452-7.635,4.327-11.803,5.655
	c-4.172,1.332-8.492,2.098-12.803,2.49c-8.641,0.776-17.238,0.099-25.635-1.157c-8.402-1.285-16.637-3.218-24.74-5.479
	c-2.027-0.572-4.063-1.179-6.037-1.773c-1.969-0.601-3.9-1.137-5.863-1.667c-3.91-1.066-7.869-1.944-11.848-2.718
	c-7.959-1.525-16.039-2.449-24.166-2.743c-8.123-0.275-16.307,0.012-24.432,1.099c-4.076,0.484-8.121,1.22-12.154,2.095
	c-2.018,0.436-4.023,0.935-6.018,1.494C5.797,61.794,3.814,62.41,1.852,63.123z"/>
<rect id="_x3C_Slice_x3E__1_" fill="none" width="196" height="81"/>
</svg>
